<?xml version="1.0" encoding="utf-8"?>
<!-- Generator: Adobe Illustrator 27.6.1, SVG Export Plug-In . SVG Version: 6.00 Build 0)  -->
<svg version="1.1" id="textblock" xmlns:svgjs="http://svgjs.dev/svgjs"
	 xmlns="http://www.w3.org/2000/svg" xmlns:xlink="http://www.w3.org/1999/xlink" x="0px" y="0px" viewBox="0 0 128 128"
	 style="enable-background:new 0 0 128 128;" xml:space="preserve">
<style type="text/css">
	.st0{fill:#193346;}
</style>
<path class="st0" d="M64.1,12.5c-28.5,0-51.6,23.1-51.6,51.6c0,28.5,23.1,51.6,51.6,51.6c28.5,0,51.6-23.1,51.6-51.6
	C115.7,35.6,92.6,12.5,64.1,12.5z M92.9,85.1c-0.8,0.9-1.7,1.4-2.9,1.5c-1.2,0.1-2.2-0.3-3-1s-1.4-1.7-1.5-2.8c-0.1-1-0.1-2-0.2-2.8
	c-0.1-0.9-0.2-1.5-0.2-1.9c0-0.4-0.1-0.8-0.1-1.1c0-0.3,0-0.6,0-1V71c0-0.9,0-2.5,0.1-4.8c0.1-2.3,0.1-4.2,0.1-5.8
	c0-1.6-0.2-3.1-0.5-4.5c-0.3-2-0.9-3.4-1.8-4.3c-0.8-0.9-2.1-1.3-3.9-1.3c-1.9,0-3.9,0.6-5.8,1.8c-1.9,1.2-3.9,2.9-5.8,5.3
	c0.1,0.9,0.1,2.1,0.2,3.7c0,1.6,0.1,3.7,0.1,6.1c0,1.8,0,3.9,0.1,6.4c0,2.5,0.1,5.3,0.2,8.5c0,0.1,0,0.1,0,0.2c0,1-0.4,1.9-1.1,2.7
	c-0.8,0.9-1.8,1.3-3,1.4c-1.1,0.1-2.2-0.3-3-1.1c-0.8-0.8-1.3-1.8-1.3-3c-0.1-3.2-0.2-6-0.2-8.5c0-2.5-0.1-4.7-0.1-6.5v-4.2
	c0-0.3,0-0.9,0-1.8c0-0.9-0.1-1.6-0.1-2c0-0.4-0.1-1-0.2-1.7c-0.1-0.7-0.2-1.3-0.3-1.9c-0.1-0.5-0.2-1-0.4-1.6
	c-0.5-1.6-1.1-2.7-1.9-3.3c-0.7-0.5-1.6-0.8-2.8-0.8c-0.3,0-0.6,0-1,0c-1.9,0.2-3.5,0.7-4.8,1.5c-1.3,0.8-2.6,2.2-4,4.1
	c-0.3,0.3-0.6,0.6-0.9,0.9c0.1,5.6,0.2,10.6,0.2,14.9c0,4.3,0,7.9-0.2,10.9c-0.1,1.2-0.5,2.2-1.4,3c-0.8,0.8-1.8,1.2-3,1.1
	c-1.2,0-2.2-0.5-3-1.4c-0.8-0.8-1.2-1.9-1.1-3c0-3.1,0.1-5.7,0.1-7.7c0-2,0-3.5,0-4.3c0-1.8-0.1-5.9-0.2-12.2
	c-0.1-6.4-0.2-10.5-0.2-12.3c0-0.8,0.4-1.7,1.2-2.5c0.8-0.8,1.8-1.3,2.9-1.3c1.1,0,2.1,0.3,3,1c0.9,0.7,1.3,2,1.3,3.9
	c1.3-1.5,2.7-2.7,4.2-3.5c1.5-0.8,3.2-1.3,5.1-1.5c0.5,0,1.1-0.1,1.6-0.1c3.2,0,5.9,0.9,8.1,2.7c1.3,1.1,2.6,2.6,3.6,4.5
	c1.8-2.2,3.8-3.9,6.1-5.1c2.3-1.2,4.9-1.9,7.7-2h0.3c4,0,7.3,1.3,9.8,3.9c2,2.3,3.3,5.3,4,8.9c0.3,1.7,0.5,3.5,0.5,5.5
	c0,2,0,4.3,0,6.8c-0.1,2.5-0.1,3.9-0.1,4.3v4.6c0,0.3,0,0.6,0,0.8c0,0.3,0,0.6,0.1,1c0,0.4,0.1,1,0.1,1.8c0.1,0.8,0.1,1.8,0.2,2.8
	c0,0.1,0,0.2,0,0.3C94,83.4,93.6,84.3,92.9,85.1z"/>
</svg>
