<?xml version="1.0" encoding="UTF-8"?><svg id="textblock" xmlns="http://www.w3.org/2000/svg" viewBox="0 0 290.52 128"><defs><style>.cls-1{fill:#193346;}</style></defs><path class="cls-1" d="m64.11,12.5c-28.5,0-51.61,23.11-51.61,51.61s23.11,51.62,51.61,51.62c28.51-.01,51.62-23.11,51.62-51.62-.01-28.5-23.11-51.61-51.62-51.61Zm28.81,72.64c-.77.87-1.73,1.36-2.89,1.45-1.15.08-2.16-.27-3.03-1.03s-1.37-1.7-1.48-2.82c-.06-1.02-.13-1.96-.2-2.84-.09-.87-.15-1.51-.17-1.94-.04-.42-.07-.78-.09-1.1-.03-.3-.05-.65-.05-1.05v-4.81c0-.9.05-2.49.14-4.78.08-2.27.1-4.2.08-5.78-.03-1.57-.19-3.07-.47-4.47-.34-1.97-.93-3.4-1.78-4.28-.84-.86-2.14-1.3-3.88-1.3-1.94.03-3.89.63-5.83,1.82-1.94,1.18-3.88,2.94-5.82,5.28.08.85.14,2.08.19,3.71.04,1.64.06,3.66.06,6.08,0,1.78.02,3.9.06,6.38.04,2.48.1,5.3.19,8.49,0,.08.01.15.01.23,0,1.02-.39,1.94-1.14,2.72-.82.85-1.81,1.3-2.96,1.35-1.15.06-2.16-.32-3-1.14-.85-.82-1.3-1.81-1.35-2.99-.09-3.18-.15-6.03-.19-8.54-.05-2.5-.07-4.67-.07-6.5v-4.22c0-.28-.01-.87-.03-1.77-.03-.9-.06-1.56-.08-1.98-.04-.43-.09-.99-.17-1.69-.09-.71-.18-1.33-.26-1.87-.09-.53-.22-1.05-.39-1.56-.45-1.57-1.06-2.67-1.85-3.29-.68-.54-1.62-.81-2.83-.81-.31,0-.63.02-.97.05-1.86.17-3.47.68-4.82,1.52-1.29.84-2.61,2.2-3.97,4.05-.28.34-.59.65-.92.93.11,5.63.16,10.59.16,14.89s-.05,7.91-.16,10.87c-.06,1.18-.51,2.17-1.36,2.96-.84.78-1.85,1.15-3.04,1.09-1.18-.05-2.16-.5-2.95-1.35-.79-.84-1.16-1.86-1.1-3.04.05-3.12.1-5.69.13-7.7.02-2,.04-3.45.04-4.34,0-1.77-.07-5.85-.2-12.25-.15-6.38-.22-10.47-.22-12.27,0-.85.41-1.69,1.23-2.54.81-.84,1.78-1.26,2.9-1.26s2.14.34,3.04,1.04c.91.71,1.33,2.02,1.27,3.94,1.27-1.5,2.68-2.66,4.22-3.49,1.55-.83,3.24-1.33,5.07-1.49.55-.05,1.08-.07,1.6-.07,3.18,0,5.88.89,8.11,2.68,1.35,1.07,2.56,2.56,3.63,4.48,1.75-2.19,3.77-3.89,6.06-5.07,2.29-1.18,4.87-1.86,7.71-2.02h.28c4.04,0,7.3,1.29,9.77,3.88,1.97,2.31,3.29,5.26,3.97,8.87.28,1.69.45,3.53.51,5.52.05,2,.04,4.26-.04,6.76-.09,2.51-.13,3.93-.13,4.27v4.64c0,.29,0,.57.05.85.02.28.05.6.08.96.02.37.06.98.12,1.83.06.84.14,1.77.25,2.78,0,.09,0,.17,0,.26,0,1.07-.35,2.01-1.05,2.82Z"/><path class="cls-1" d="m134.23,84.47c-3.12-1.42-5.5-3.2-7.15-5.36-1.65-2.16-2.84-4.14-3.57-5.96-.74-1.81-1.19-3.62-1.36-5.4-.17-1.79-.08-4.1.25-6.93.4-2.38,1.23-4.73,2.51-7.06,1.28-2.32,2.98-4.41,5.1-6.25,2.13-1.84,4.69-3.26,7.7-4.25,3-.99,6.21-1.29,9.61-.89,3.29.4,6.1,1.29,8.42,2.68,2.32,1.39,4.31,3.16,5.95,5.32,1.42,1.82,2.28,3.18,2.6,4.08.31.91.6,1.76.85,2.55.26.79.47,1.47.64,2.04.17.57.33,1.15.47,1.74.14.6.24,1.29.3,2.08.06,1.08-.14,2.07-.6,2.98-.46.91-1.13,1.62-2.04,2.13-.74.29-1.53.43-2.38.43l-14.54.25c-10.21.06-15.31.17-15.31.34h-.25c.74,2.89,2.28,5.16,4.64,6.8,2.35,1.65,5.57,2.61,9.66,2.89,2.21.11,4.05,0,5.53-.34,1.64-.45,2.83-.86,3.57-1.23.74-.37,1.64-.86,2.72-1.49,1.08-.4,2.15-.34,3.23.17,1.08.51,1.81,1.31,2.21,2.38.4,1.08.35,2.13-.13,3.15-.48,1.02-1.23,1.82-2.25,2.38-.91.51-1.84.95-2.81,1.32-.96.37-2.38.81-4.25,1.32-1.87.51-4.65.74-8.34.68-4.2-.29-7.86-1.13-10.97-2.55Zm22.97-24.33c-.51-1.7-1.33-3.32-2.47-4.85-2.27-2.61-5.08-4.11-8.42-4.51-3.52-.45-6.61.3-9.27,2.25-2.67,1.96-4.48,4.5-5.44,7.61,3.29-.17,11.82-.34,25.6-.51Z"/><path class="cls-1" d="m175.57,82.35c-.34-8.51-.54-16.81-.6-24.92l-.08-5.02h-1.02c-1.19,0-2.17-.41-2.93-1.23-.77-.82-1.15-1.83-1.15-3.02s.35-2.28,1.06-3.1c.71-.82,1.66-1.23,2.85-1.23h1.53v-2.47c0-4.76,1.3-8.55,3.91-11.36,2.61-2.81,6.15-4.21,10.63-4.21,2.21,0,4.2.27,5.96.81,1.76.54,3.52,1.35,5.27,2.42l-4.08,6.89c-2.5-1.19-4.91-1.79-7.23-1.79-2.16,0-3.66.5-4.51,1.49-.85.99-1.3,2.71-1.36,5.15l-.09,2.89,12.76.34v8.51l-13.1-.34v8.17c.06,8.96.2,16.02.43,21.18.06,1.59-.29,2.84-1.02,3.74-.74.91-1.73,1.36-2.98,1.36-2.72,0-4.14-1.42-4.25-4.25Zm20.67,2.98c-.68-.79-1.05-2.07-1.11-3.83-.28-5.27-.43-10.46-.43-15.57l-.08-8.51-.08-5.02h-.68c-1.36,0-2.44-.4-3.23-1.19-.79-.79-1.19-1.81-1.19-3.06s.35-2.28,1.06-3.1c.71-.82,1.66-1.23,2.85-1.23h1.53l.08-3.23c.11-5.1,1.53-9.13,4.25-12.08,2.72-2.95,6.46-4.42,11.23-4.42,4.2,0,7.54.62,10.04,1.87,2.5,1.25,3.74,2.89,3.74,4.93,0,1.25-.44,2.31-1.32,3.19-.88.88-1.97,1.32-3.28,1.32-.79,0-1.7-.23-2.72-.68l-2.72-1.36c-1.31-.62-2.89-.94-4.76-.94-2.27,0-3.9.72-4.89,2.17s-1.43,3.7-1.32,6.76l.08,2.3h3.74c1.3,0,2.34.4,3.1,1.19.77.79,1.15,1.82,1.15,3.06s-.38,2.27-1.15,3.06c-.77.79-1.8,1.19-3.1,1.19h-4v7.4c0,10.32.17,17.35.51,21.1.17,1.93-.17,3.42-1.02,4.47-.85,1.05-1.99,1.54-3.4,1.49-1.25-.06-2.21-.48-2.89-1.28Zm21.01.26c-.79-.74-1.22-1.76-1.28-3.06-.06-.85-.08-3.18-.08-6.98,0-.96.03-1.81.08-2.55l.08-8.17v-1.87l.08-8.76c.06-1.87.09-4.71.09-8.51,0-1.3.41-2.34,1.23-3.1.82-.77,1.83-1.15,3.02-1.15s2.2.38,3.02,1.15c.82.77,1.23,1.8,1.23,3.1,0,3.74-.03,6.55-.08,8.42l-.08,8.76v2.04l-.08,8.08c-.06.68-.08,1.48-.08,2.38l.08,6.98c0,1.3-.43,2.35-1.28,3.15-.85.79-1.9,1.19-3.15,1.19-1.08,0-2.01-.37-2.81-1.11Z"/><path class="cls-1" d="m236.74,85.45c-.85-.77-1.28-1.8-1.28-3.1,0-4.48-.03-8.34-.08-11.57-.11-9.64-.17-18-.17-25.09,0-1.3.4-2.32,1.19-3.06.79-.74,1.76-1.11,2.89-1.11,1.19,0,2.23.38,3.11,1.15.88.77,1.32,1.83,1.32,3.19v2.64c3.52-4.59,8.14-6.89,13.87-6.89,4.93,0,8.72,1.73,11.36,5.19s3.96,8.11,3.96,13.95c0,6.46-.08,10.72-.26,12.76l-.42,5.7-.26,3.66c-.11,1.14-.57,2.04-1.36,2.72-.79.68-1.73,1.02-2.81,1.02-1.13,0-2.13-.38-2.98-1.15s-1.28-1.8-1.28-3.1c0-.91.2-4.05.6-9.44.28-3.69.42-6.58.42-8.68,0-4.82-.68-8.38-2.04-10.68-1.36-2.3-3.46-3.45-6.29-3.45-2.04,0-4.16.62-6.34,1.87-2.18,1.25-4.24,2.84-6.17,4.76l.17,12.08.08,13.53c0,1.3-.42,2.34-1.28,3.1-.85.77-1.84,1.15-2.98,1.15s-2.13-.38-2.98-1.15Z"/></svg>