<svg xmlns="http://www.w3.org/2000/svg" version="1.1" xmlns:xlink="http://www.w3.org/1999/xlink" xmlns:svgjs="http://svgjs.dev/svgjs" width="128" height="128" viewBox="0 0 128 128"><g transform="matrix(0.8046875,0,0,0.8046875,12.612792253521128,12.612792253521128)"><svg viewBox="0 0 142 142" data-background-color="#fafafa" preserveAspectRatio="xMidYMid meet" height="128" width="128" xmlns="http://www.w3.org/2000/svg" xmlns:xlink="http://www.w3.org/1999/xlink"><g id="tight-bounds" transform="matrix(1,0,0,1,-0.15550000000000352,-0.15550000000000352)"><svg viewBox="0 0 142.31066447748242 142.31066447748242" height="142.31066447748242" width="142.31066447748242"><g><svg></svg></g><g><svg viewBox="0 0 142.31066447748242 142.31066447748242" height="142.31066447748242" width="142.31066447748242"><g><path d="M0 71.155c0-39.298 31.857-71.155 71.155-71.155 39.298 0 71.155 31.857 71.156 71.155 0 39.298-31.857 71.155-71.156 71.156-39.298 0-71.155-31.857-71.155-71.156zM71.155 136.719c36.21 0 65.564-29.354 65.564-65.564 0-36.21-29.354-65.564-65.564-65.563-36.21 0-65.564 29.354-65.563 65.563 0 36.21 29.354 65.564 65.563 65.564z" data-fill-palette-color="tertiary" fill="#130912" stroke="transparent"></path><ellipse rx="68.30911894919156" ry="68.30911894919156" cx="71.15533223874121" cy="71.15533223874121" fill="#130912" stroke="transparent" stroke-width="0" fill-opacity="1" data-fill-palette-color="tertiary"></ellipse></g><g transform="matrix(1,0,0,1,29.989108276746492,40.15342325380702)"><svg viewBox="0 0 82.33244792398943 62.003817969868386" height="62.003817969868386" width="82.33244792398943"><g><svg viewBox="0 0 82.33244792398943 62.003817969868386" height="62.003817969868386" width="82.33244792398943"><g><svg viewBox="0 0 82.33244792398943 62.003817969868386" height="62.003817969868386" width="82.33244792398943"><g id="textblocktransform"><svg viewBox="0 0 82.33244792398943 62.003817969868386" height="62.003817969868386" width="82.33244792398943" id="textblock"><g><svg viewBox="0 0 82.33244792398943 62.003817969868386" height="62.003817969868386" width="82.33244792398943"><g transform="matrix(1,0,0,1,0,0)"><svg width="82.33244792398943" viewBox="3.25 -26.54140625 35.353472222208005 26.627939583333333" height="62.003817969868386" data-palette-color="#fafafa"><path d="M33.6-2.2L33.6-2.2Q33.55-3.1 33.48-3.88 33.4-4.65 33.38-5.03 33.35-5.4 33.33-5.68 33.3-5.95 33.3-6.3L33.3-6.3 33.3-9.15Q33.3-9.95 33.38-11.98 33.45-14 33.43-15.4 33.4-16.8 33.15-18.05L33.15-18.05Q32.85-19.8 32.1-20.58 31.35-21.35 29.8-21.35L29.8-21.35Q26.35-21.3 22.9-17.15L22.9-17.15Q23.05-15.65 23.05-11.35L23.05-11.35Q23.05-8.2 23.2-2.55L23.2-2.55Q23.25-1.55 22.53-0.8 21.8-0.05 20.78 0 19.75 0.05 19-0.68 18.25-1.4 18.2-2.45L18.2-2.45Q18.05-8.1 18.05-11.35L18.05-11.35 18.05-13.85Q18.05-14.1 18.03-14.9 18-15.7 17.98-16.07 17.95-16.45 17.88-17.07 17.8-17.7 17.73-18.18 17.65-18.65 17.5-19.1L17.5-19.1Q17.1-20.5 16.4-21.05L16.4-21.05Q15.65-21.65 14.15-21.5L14.15-21.5Q12.5-21.35 11.3-20.6L11.3-20.6Q10.15-19.85 8.95-18.2L8.95-18.2Q8.7-17.9 8.4-17.65L8.4-17.65Q8.6-7.65 8.4-2.4L8.4-2.4Q8.35-1.35 7.6-0.65 6.85 0.05 5.8 0 4.75-0.05 4.05-0.8 3.35-1.55 3.4-2.6L3.4-2.6Q3.5-8.15 3.5-9.73 3.5-11.3 3.38-16.98 3.25-22.65 3.25-24.25L3.25-24.25Q3.25-25 3.98-25.75 4.7-26.5 5.7-26.5 6.7-26.5 7.5-25.88 8.3-25.25 8.25-23.55L8.25-23.55Q10.5-26.2 13.75-26.5L13.75-26.5Q17.2-26.8 19.5-24.95L19.5-24.95Q20.7-24 21.65-22.3L21.65-22.3Q24.75-26.2 29.8-26.5L29.8-26.5Q33.5-26.55 35.75-24.2L35.75-24.2Q37.5-22.15 38.1-18.95L38.1-18.95Q38.35-17.45 38.4-15.68 38.45-13.9 38.38-11.68 38.3-9.45 38.3-9.15L38.3-9.15 38.3-6.4Q38.3-6.15 38.33-5.9 38.35-5.65 38.38-5.33 38.4-5 38.45-4.25 38.5-3.5 38.6-2.6L38.6-2.6Q38.65-1.55 37.98-0.78 37.3 0 36.27 0.08 35.25 0.15 34.48-0.53 33.7-1.2 33.6-2.2L33.6-2.2Z" opacity="1" transform="matrix(1,0,0,1,0,0)" fill="#fafafa" class="wordmark-text-0" data-fill-palette-color="quaternary" id="text-0"></path></svg></g></svg></g></svg></g></svg></g><g></g></svg></g></svg></g></svg></g><defs></defs></svg><rect width="142.31066447748242" height="142.31066447748242" fill="none" stroke="none" visibility="hidden"></rect></g></svg></g></svg>